# Blender v2.76 (sub 0) OBJ File: 'path.blend'
# www.blender.org
mtllib path.mtl
o Cube
v 0.076200 0.609600 0.003175
v -0.076200 0.609600 0.003175
v -0.076200 -0.609600 0.003175
v 0.076200 -0.609599 0.003175
v 0.076200 0.609600 -0.003175
v -0.076200 0.609599 -0.003175
v -0.076200 -0.609600 -0.003175
v 0.076200 -0.609600 -0.003175
vt 0.707107 0.603553
vt 0.353554 0.603553
vt 0.353554 0.250000
vt 0.707107 0.250000
vt 0.000000 0.603554
vt 0.000000 0.250000
vt 0.750000 0.250000
vt 0.750000 0.000000
vt 1.000000 0.000000
vt 1.000000 0.250000
vt 0.000000 0.000000
vt 0.250000 0.000000
vt 0.250000 0.250000
vt 0.500000 0.000000
vt 0.500000 0.250000
vn -0.000000 0.000000 1.000000
vn -0.000000 0.000000 -1.000000
vn -0.000000 1.000000 -0.000000
vn -1.000000 -0.000000 0.000000
vn 0.000000 -1.000000 0.000000
vn 1.000000 0.000000 -0.000000
usemtl Material
s off
f 1/1/1 2/2/1 3/3/1 4/4/1
f 5/2/2 8/5/2 7/6/2 6/3/2
f 1/7/3 5/8/3 6/9/3 2/10/3
f 2/6/4 6/11/4 7/12/4 3/13/4
f 3/13/5 7/12/5 8/14/5 4/15/5
f 5/8/6 1/7/6 4/15/6 8/14/6
