# Blender v2.66 (sub 1) OBJ File: 'teagle.blend'
# www.blender.org
mtllib teagle.mtl
o Pool_Exterior_pool_exterior_mesh
v 8.229591 11.430006 -1.000000
v 12.999994 16.000008 -1.000000
v -8.229593 -11.430004 -1.000000
v -12.999995 -16.000006 -1.000000
v 12.999999 16.000000 5.486651
v -13.000000 16.000000 5.486651
v -12.999998 -16.000002 5.486651
v 13.000005 -15.999994 5.486651
v -13.000008 15.999989 -1.000000
v 13.000000 -15.999998 -1.000000
v -8.229596 11.430000 4.477540
v 8.229595 11.430000 4.477540
v 8.229599 -11.429996 4.477542
v -8.229594 -11.430001 4.477542
v -8.229602 11.429993 -1.000000
v 8.229596 -11.429999 -1.000000
v -8.229594 11.431220 4.477542
v 8.229598 -5.323576 3.260419
v -8.229594 -5.323581 3.260419
v -8.229594 -11.430001 3.260132
v 8.229599 -11.429996 3.260132
v 8.229598 -3.195883 2.940530
v 8.229595 11.430000 0.210405
v -8.229596 11.430000 0.210405
v -8.229595 -3.195886 2.940530
v -8.229594 -11.430001 4.477542
v -8.229594 11.431220 4.477542
v 8.229599 -4.248360 3.133876
v -8.229596 -4.248363 3.133876
vt 0.272237 0.000000
vt 0.272237 0.409046
vt 0.000000 0.409046
vt 0.000000 0.000000
vt 1.000000 0.000000
vt 1.000000 0.413963
vt 0.000000 0.413963
vt 1.000000 0.410030
vt 0.000000 0.411013
vt 1.000000 0.409046
vt 0.816523 0.260489
vt 0.183476 0.260489
vt 0.000000 0.260489
vt 0.183477 0.000000
vt 0.816523 0.000000
vt 1.000000 0.260489
vt 0.569272 -3.000000
vt 0.569272 4.000000
vt -0.426954 4.000000
vt -0.426954 -3.000000
vt 0.000000 0.410030
vt 0.142813 0.334662
vt 0.000000 0.000001
vt 0.857188 0.334661
vt 0.857188 0.000000
vt 1.000000 0.334661
vt 0.000000 0.334661
vt 0.142813 0.000000
vt 0.000000 0.414946
vt 1.000000 0.414946
vt 0.000000 0.407080
vt 1.000000 0.388397
vt 1.000000 0.411013
vt 3.992992 -3.002950
vt 3.992992 3.999017
vt 2.378976 3.999017
vt 2.378976 -3.002950
vt 1.855526 -2.994100
vt 1.855526 4.007866
vt -1.576819 4.007866
vt -1.576819 -2.994100
vt 2.099730 4.007866
vt 2.099730 -2.994100
vn 0.000000 -0.000000 1.000000
vn -0.000000 1.000000 -0.000000
vn 0.000000 -1.000000 0.000001
vn 1.000000 0.000000 -0.000001
vn 0.000000 0.000000 -1.000000
vn -0.000000 1.000000 -0.000001
vn -1.000000 -0.000000 0.000000
vn 0.000001 -1.000000 0.000001
vn 0.000000 -1.000000 -0.000001
vn 1.000000 0.000000 0.000000
vn -1.000000 -0.000000 0.000001
vn 0.000000 0.000031 -0.999969
vn 0.000000 0.000031 -1.000000
vn 0.000000 -0.058504 -0.998260
vn 0.000000 -0.182073 -0.983276
vn 0.000000 -0.183477 -0.983001
vn 0.000000 -0.148839 -0.988830
usemtl tile_material
s off
f 5/1/1 6/2/1 7/3/1 8/4/1
f 5/5/2 2/6/2 9/7/2 6/4/2
f 7/5/3 4/8/3 10/9/3 8/4/3
f 2/3/4 5/4/4 8/5/4 10/10/4
f 2/5/5 1/11/5 15/12/5 9/4/5
f 4/13/5 3/14/5 16/15/5 10/16/5
f 16/17/6 3/18/6 14/19/6 13/20/6
f 4/21/7 7/4/7 6/5/7 9/8/7
f 3/22/5 4/23/5 9/5/5 15/24/5
f 1/25/5 2/26/5 10/27/5 16/28/5
f 1/29/8 11/5/8 15/30/8
f 1/29/9 12/4/9 11/5/9
f 3/10/4 15/31/4 11/4/4
f 3/32/10 11/4/10 14/5/10
f 1/33/11 16/9/11 12/5/11
f 12/5/11 16/9/11 13/4/11
s 1
f 21/34/12 20/35/13 19/36/14 18/37/14
f 22/38/15 25/39/15 24/40/16 23/41/16
f 19/36/14 29/42/17 28/43/17 18/37/14
f 29/42/17 25/39/15 22/38/15 28/43/17
o Water_water_mesh
v -8.686790 11.887200 -0.721089
v 8.686801 11.887188 -0.721089
v 8.686791 -11.887199 -0.721089
v -8.686794 -11.887194 -0.721089
usemtl water_material
s off
f 30//5 31//5 32//5 33//5
