<?xml version="1.0" encoding="utf-8"?>
<!-- Generator: Adobe Illustrator 18.1.1, SVG Export Plug-In . SVG Version: 6.00 Build 0)  -->
<svg version="1.1" id="Layer_1" xmlns="http://www.w3.org/2000/svg" xmlns:xlink="http://www.w3.org/1999/xlink" x="0px" y="0px"
	 viewBox="0 0 350 100" enable-background="new 0 0 350 100" xml:space="preserve">
<g>
	<path stroke="#000000" stroke-miterlimit="10" d="M38.1,38.6v-1.5c0-8.3-2.9-12.4-8.4-12.4c-3,0-5.4,1.3-6.5,3.5
		c-1.4,2.4-1.7,4.5-1.7,10.3v23.8c0,5.5,0.3,8.3,1.2,10.6c1.1,2.8,3.9,4.6,7.1,4.6c4.1,0,6.8-2.4,7.9-7.1c0.4-1.8,0.5-3.4,0.6-8.7
		h11.2v2.5c0,15.6-6.8,23.7-19.6,23.7c-7.2,0-12.9-2.8-16-7.9c-2.7-4.4-3.4-8.6-3.4-19.2V40.7c0-11.4,0.9-15.3,4.2-19.9
		c3.1-4.3,8.5-6.7,15.1-6.7c12.2,0,19.4,8.2,19.4,22.2v2.1H38.1z"/>
	<path stroke="#000000" stroke-miterlimit="10" d="M96.7,15.3v48.5c0,9-1.1,13.6-4.1,17.7c-3.1,4.2-8.4,6.4-14.8,6.4
		c-6.5,0-11.8-2.3-14.9-6.4c-3-4.1-4.1-8.7-4.1-17.7V15.3h11.1v50.3c0,8.5,2.3,11.9,7.9,11.9c5.6,0,7.8-3.4,7.8-11.9V15.3H96.7z"/>
	<polygon stroke="#000000" stroke-miterlimit="10" points="221.6,29 229.4,71.3 229.4,71.3 232.4,86.9 243.8,86.9 229.3,15.3 
		214.2,15.3 200.4,86.9 211.2,86.9 	"/>
	<path stroke="#000000" stroke-miterlimit="10" d="M288.5,15.3v48.5c0,9-1.1,13.6-4.1,17.7c-3.1,4.2-8.4,6.4-14.8,6.4
		c-6.5,0-11.8-2.3-14.9-6.4c-3-4.1-4.1-8.7-4.1-17.7V15.3h11.1v50.3c0,8.5,2.3,11.9,7.9,11.9c5.6,0,7.8-3.4,7.8-11.9V15.3H288.5z"/>
	<path stroke="#000000" stroke-miterlimit="10" d="M312,86.9l-15.3-71.6h11.5l10.7,54.4l9.4-54.4h11.3l-13.8,71.6H312z"/>
	<path fill="none" d="M185.2,34.1c-3.7-7.9-9.4-13.9-17.2-17.8c-6.3-3.1-12.9-4.4-19.9-3.7c-3,0.3-5.9,0.9-8.8,1.9
		c-2.5,0.9-4.8,2.1-7.1,3.3c-2.4,1.2-4.5,2.8-6.4,4.7c-1.9,2-3.5,4.2-5,6.5c-5.4,8.3-7.2,17.3-5.5,27c1.6,8.6,5.8,15.8,12.5,21.4
		c6.9,5.8,14.9,8.7,24.6,8.7c2.1,0.1,4.8-0.3,7.4-0.9c10.6-2.6,18.7-8.7,24.1-18.2c2.4-4.2,3.8-8.8,4.3-13.6c0.4-3,0.3-6-0.1-9
		C187.7,40.8,186.7,37.3,185.2,34.1z"/>
	<path fill="#E11E25" d="M151.8,7.6c-23.5,0-42.8,19.4-42.4,42.5c-0.5,22.5,18.6,42,41.8,42.3c23.2,0.3,42.6-18.7,43-41.6
		C194.5,27,174.9,7.6,151.8,7.6z M188.2,53.4c-0.6,4.8-1.9,9.4-4.3,13.6c-5.4,9.5-13.4,15.6-24.1,18.2c-2.6,0.6-5.3,1-7.4,0.9
		c-9.7,0-17.7-2.9-24.6-8.7c-6.7-5.6-10.9-12.8-12.5-21.4c-1.8-9.7,0-18.7,5.5-27c1.5-2.3,3.1-4.5,5-6.5c1.9-1.9,4-3.5,6.4-4.7
		c2.3-1.2,4.6-2.4,7.1-3.3c2.9-1,5.8-1.6,8.8-1.9c7-0.7,13.7,0.5,19.9,3.7c7.8,3.9,13.6,9.9,17.2,17.8c1.5,3.3,2.5,6.7,3,10.3
		C188.5,47.3,188.6,50.4,188.2,53.4z"/>
	<path fill="#E11E25" d="M152.7,62.6c-1.6,0.6-3.3,1.2-5,1.3c-4.7,0.3-8.9-1.3-12.4-4.3c-4.5-3.8-7.9-8.5-9.6-14.2
		c-0.7-2.2-1-4.4-1.1-6.7c-0.1-2.6-0.1-5.3,0.2-7.9c0.4-3.3,1.5-6.2,4.4-8.2c1.3-0.9,2.9-0.8,4.1,0.2c1.1,1,1.8,2.3,2.3,3.7
		c0.9,2.6,1.9,5.3,3.1,7.8c0.8,1.9,1.8,3.6,3.5,4.8c0.4,0.3,0.8,0.4,1.2,0.7c-4.2,4.2-5.7,9.1-3.3,14.8
		C142.4,60.1,146.8,62.5,152.7,62.6z"/>
	<path fill="#E11E25" d="M147.1,37.3c2.5-1.6,5-2.7,7.8-3c2.7-0.3,5.3-0.2,7.8,1c2.6,1.3,4.7,3.2,6.7,5.2c3.5,3.5,5.5,7.8,6.9,12.5
		c1,3.4,1.8,6.9,1.6,10.5c-0.2,3.5-0.8,6.8-2.4,10c-0.6,1.2-1.3,2.3-2.8,2.6c-1,0.2-2,0.2-2.9-0.4c-1.7-1-2.8-2.5-3.2-4.5
		c-0.5-2.5-1.1-5-2.4-7.3c-0.9-1.6-1.9-3-3.3-4.2c-0.4-0.3-0.4-0.6,0-1c1.7-2,3-4.1,3.5-6.7c0.6-2.9,0.1-5.6-1.2-8.2
		c-2.4-4.5-6.1-7-11.3-7.1c-1.5,0-2.9,0.2-4.4,0.6C147.5,37.4,147.4,37.3,147.1,37.3z"/>
	<path fill="#E11E25" d="M163.6,49.7c0.4,6.5-5.6,12-11.9,11.9c-6.5-0.1-11.8-5.3-11.8-11.9c0-6.5,5.4-11.9,11.9-11.9
		C158.6,37.7,163.9,43.7,163.6,49.7z"/>
	<path fill="#E11E25" d="M165.6,81.2c-11.1,5.1-26.9,4.3-38.3-6.6c-11-10.5-13.3-26-8.3-37.9c0.1,0.4,0.1,0.7,0,1
		c-0.3,2.1-0.2,4.1,0,6.2c0.3,3.2,1,6.3,2.1,9.4c2,5.4,5,10.2,8.9,14.4c3.7,4,7.8,7.3,12.6,9.8c4,2,8.2,3.5,12.7,4
		c3.2,0.4,6.3,0.4,9.5-0.3c0.1,0,0.2,0,0.3,0C165.2,81.2,165.3,81.2,165.6,81.2z"/>
	<path fill="#E11E25" d="M145,14.8c13.3-2.1,24.6,1.6,33.3,11.9c8.6,10.1,10.3,21.8,6.3,34.3c-0.1,0-0.1,0-0.2,0c0-0.4,0-0.7,0-1.1
		c0-0.4,0.1-0.8,0.1-1.1c0.2-1.8,0.1-3.6,0-5.4c-0.2-3.2-0.9-6.3-2.1-9.4c-2.2-5.9-5.4-11.2-9.8-15.8c-4.5-4.7-9.7-8.3-15.8-10.7
		c-3.1-1.2-6.4-2.1-9.7-2.3c-0.7-0.1-1.4-0.2-2.2-0.2C144.9,15,145,14.9,145,14.8z"/>
</g>
</svg>
